<svg xmlns="http://www.w3.org/2000/svg" viewBox="0 -250 703 702" width="703" height="702"><path d="M489-222.5Q553-196 602-147q48 49 74.5 113T703 101q0 71-26.5 135T601 349q-49 49-113.5 76T352 452q-71 0-135.5-27T103 349q-49-48-76-112.5T0 101Q0 31 26.5-33.5T102-147q49-49 112-75.5T348-250h7q70 1 134 27.5zm-156 251Q396 65 432.5 128T469 266h65q0-69-25.5-130.5T435 26q-48-48-109.5-73.5T195-73v65q75 0 138 36.5zm-59 100q36 21.5 57.5 58T353 266h66q0-91-65-159-68-65-159-65v65q43 0 79 21.5zM208 189q-13 13-13 32t13 32q13 13 32 13t32-13q13-13 13-32t-13-32q-13-13-32-13t-32 13z" fill="#ec4600"/></svg>