<svg xmlns="http://www.w3.org/2000/svg" viewBox="0 -250 703 703" width="703" height="703"><path d="M486.5 426Q551 399 600 350t76-113.5Q703 172 703 101T676-34.5Q649-99 600-148q-49-48-113.5-75T351-250q-71 0-135 26.5T103-148Q54-99 27-34.5T0 101q0 71 27 135.5T103 350q48 49 112.5 76T351 453q71 0 135.5-27zm21-475.5q-22.5-37.5-60-60T367-132l-2-44q55 0 102 28t75 75q28 47 28 102l-40 2q0-43-22.5-80.5zm-75 19.5Q406-57 369-57l-2-48q37 0 68.5 18.5t50 50Q504-5 504 32l-45 2q0-37-26.5-64zM183 224.5q24-30.5 53.5-49.5t48.5-19q-45-31-45-81 0-37 27.5-64T332-16q40 0 67 26.5T426 75q0 26-13 48.5T378 158q30 3 57.5 23.5t46 50Q500 261 505 287H154q5-32 29-62.5z" fill="#f80"/></svg>