<svg xmlns="http://www.w3.org/2000/svg" viewBox="0 -250 703 703" width="703" height="703"><path d="M488.5-222Q552-195 602-146q48 49 74.5 112.5T703 101q0 71-27 135.5T601 350q-49 49-113.5 76T352 453q-71 0-135.5-27T103 350q-49-49-76-113.5T0 101Q0 31 26.5-33T102-146q49-49 112.5-76T348-250h7q70 1 133.5 28zM520 43q7-17 7-41 0-31-13-53-24 0-43.5 8.5T423-12q-37-8-69-8-39 0-75 9-27-22-48-31t-45-9q-12 24-12 53 0 21 6 41-33 39-33 97 0 100 66 129 55 24 141 24 9 0 41-2 47-1 84-17 40-15 57-47t17-87q0-60-33-97zM293 268q-91-13-91-85 0-30 17.5-50t44.5-20l48 5q16 3 38 3 21 0 39-3l47-5q29 0 46 19.5t17 50.5q0 19-8 38-14 28-43 38t-77 10h-41q-30 0-37-1zm-21-132q-11 0-17 9-14 16-14 38 0 9 3 20t11 19q8 8 17 8 10 0 18-8 13-13 13-39l-2-20q-10-27-29-27zm174 8q-8-8-18-8-9 0-17 9-14 16-14 38 0 9 3 20t11 19q8 8 17 8 10 0 18-8 14-16 14-39 0-10-3-20-3-11-11-19z" fill="#39dfff"/></svg>