<svg xmlns="http://www.w3.org/2000/svg" viewBox="0 -250 703 702" width="703" height="702"><path d="M487.5-223Q552-196 601-148q48 49 75 113.5T703 101q0 71-26.5 135T601 349q-49 49-113.5 76T352 452q-71 0-135.5-27T103 349q-49-48-76-112.5T0 101Q0 30 27-34.5T103-148q49-48 113.5-75T352-250q71 0 135.5 27zm-310 329q20.5 25 52.5 32-14 3-25 3l-15-3q8 28 31.5 46t54.5 19q-49 39-115 39h-22q64 42 142 42t138-37q60-37 92.5-98T544 20V8q28-20 47-48-21 8-54 14 27-16 42-51-40 19-61 23-24-30-67-30-38 0-65 27T359 9l2 21q-115-6-191-98-12 22-12 47 0 52 41 77-22 0-42-10v1q0 34 20.5 59z" fill="#139de9"/></svg>