<?xml version="1.0" encoding="UTF-8" standalone="no"?>
<svg
   xmlns:dc="http://purl.org/dc/elements/1.1/"
   xmlns:cc="http://creativecommons.org/ns#"
   xmlns:rdf="http://www.w3.org/1999/02/22-rdf-syntax-ns#"
   xmlns:svg="http://www.w3.org/2000/svg"
   xmlns="http://www.w3.org/2000/svg"
   xmlns:sodipodi="http://sodipodi.sourceforge.net/DTD/sodipodi-0.dtd"
   xmlns:inkscape="http://www.inkscape.org/namespaces/inkscape"
   version="1.1"
   viewBox="0 -250 703 703"
   id="svg6"
   sodipodi:docname="github.svg"
   width="703"
   height="703"
   inkscape:version="0.92.0 r">
  <metadata
     id="metadata12">
    <rdf:RDF>
      <cc:Work
         rdf:about="">
        <dc:format>image/svg+xml</dc:format>
        <dc:type
           rdf:resource="http://purl.org/dc/dcmitype/StillImage" />
        <dc:title></dc:title>
      </cc:Work>
    </rdf:RDF>
  </metadata>
  <defs
     id="defs10" />
  <sodipodi:namedview
     pagecolor="#ffffff"
     bordercolor="#666666"
     borderopacity="1"
     objecttolerance="10"
     gridtolerance="10"
     guidetolerance="10"
     inkscape:pageopacity="0"
     inkscape:pageshadow="2"
     inkscape:window-width="1916"
     inkscape:window-height="1058"
     id="namedview8"
     showgrid="false"
     fit-margin-top="0"
     fit-margin-left="0"
     fit-margin-right="0"
     fit-margin-bottom="0"
     inkscape:zoom="0.236"
     inkscape:cx="-284.28814"
     inkscape:cy="500"
     inkscape:window-x="0"
     inkscape:window-y="20"
     inkscape:window-maximized="0"
     inkscape:current-layer="g4" />
  <g
     transform="matrix(1,0,0,-1,-47,453)"
     id="g4">
    <path
       d="M 535.5,675 Q 599,648 649,599 697,550 723.5,486.5 750,423 750,352 750,281 723,216.5 696,152 648,103 599,54 534.5,27 470,0 399,0 328,0 263.5,27 199,54 150,103 101,152 74,216.5 47,281 47,352 q 0,70 26.5,134 26.5,64 75.5,113 49,49 112.5,76 63.5,27 133.5,28 h 7 q 70,-1 133.5,-28 z M 567,410 q 7,17 7,41 0,31 -13,53 -24,0 -43.5,-8.5 Q 498,487 470,465 q -37,8 -69,8 -39,0 -75,-9 -27,22 -48,31 -21,9 -45,9 -12,-24 -12,-53 0,-21 6,-41 -33,-39 -33,-97 0,-100 66,-129 55,-24 141,-24 9,0 41,2 47,1 84,17 40,15 57,47 17,32 17,87 0,60 -33,97 z M 340,185 q -91,13 -91,85 0,30 17.5,50 17.5,20 44.5,20 l 48,-5 q 16,-3 38,-3 21,0 39,3 l 47,5 q 29,0 46,-19.5 17,-19.5 17,-50.5 0,-19 -8,-38 -14,-28 -43,-38 -29,-10 -77,-10 h -41 q -30,0 -37,1 z m -21,132 q -11,0 -17,-9 -14,-16 -14,-38 0,-9 3,-20 3,-11 11,-19 8,-8 17,-8 10,0 18,8 13,13 13,39 l -2,20 q -10,27 -29,27 z m 174,-8 q -8,8 -18,8 -9,0 -17,-9 -14,-16 -14,-38 0,-9 3,-20 3,-11 11,-19 8,-8 17,-8 10,0 18,8 14,16 14,39 0,10 -3,20 -3,11 -11,19 z"
       id="path2"
       inkscape:connector-curvature="0"
       style="fill:#39dfff;fill-opacity:1" />
  </g>
</svg>
