<?xml version="1.0" encoding="UTF-8" standalone="no"?>
<svg
   xmlns:dc="http://purl.org/dc/elements/1.1/"
   xmlns:cc="http://creativecommons.org/ns#"
   xmlns:rdf="http://www.w3.org/1999/02/22-rdf-syntax-ns#"
   xmlns:svg="http://www.w3.org/2000/svg"
   xmlns="http://www.w3.org/2000/svg"
   xmlns:sodipodi="http://sodipodi.sourceforge.net/DTD/sodipodi-0.dtd"
   xmlns:inkscape="http://www.inkscape.org/namespaces/inkscape"
   version="1.1"
   viewBox="0 -250 703 702"
   id="svg6"
   sodipodi:docname="twitter.svg"
   width="703"
   height="702"
   inkscape:version="0.92.0 r">
  <metadata
     id="metadata12">
    <rdf:RDF>
      <cc:Work
         rdf:about="">
        <dc:format>image/svg+xml</dc:format>
        <dc:type
           rdf:resource="http://purl.org/dc/dcmitype/StillImage" />
        <dc:title></dc:title>
      </cc:Work>
    </rdf:RDF>
  </metadata>
  <defs
     id="defs10" />
  <sodipodi:namedview
     pagecolor="#ffffff"
     bordercolor="#666666"
     borderopacity="1"
     objecttolerance="10"
     gridtolerance="10"
     guidetolerance="10"
     inkscape:pageopacity="0"
     inkscape:pageshadow="2"
     inkscape:window-width="1916"
     inkscape:window-height="1058"
     id="namedview8"
     showgrid="false"
     fit-margin-top="0"
     fit-margin-left="0"
     fit-margin-right="0"
     fit-margin-bottom="0"
     inkscape:zoom="0.236"
     inkscape:cx="-246.15254"
     inkscape:cy="220.33898"
     inkscape:window-x="0"
     inkscape:window-y="20"
     inkscape:window-maximized="0"
     inkscape:current-layer="g4" />
  <g
     transform="matrix(1,0,0,-1,-47,452)"
     id="g4">
    <path
       d="M 534.5,675 Q 599,648 648,600 696,551 723,486.5 750,422 750,351 750,280 723.5,216 697,152 648,103 599,54 534.5,27 470,0 399,0 328,0 263.5,27 199,54 150,103 101,151 74,215.5 47,280 47,351 q 0,71 27,135.5 27,64.5 76,113.5 49,48 113.5,75 64.5,27 135.5,27 71,0 135.5,-27 z m -310,-329 q 20.5,-25 52.5,-32 -14,-3 -25,-3 l -15,3 q 8,-28 31.5,-46 Q 292,250 323,249 274,210 208,210 h -22 q 64,-42 142,-42 78,0 138,37 60,37 92.5,98 32.5,61 32.5,129 v 12 q 28,20 47,48 -21,-8 -54,-14 27,16 42,51 -40,-19 -61,-23 -24,30 -67,30 -38,0 -65,-27 -27,-27 -27,-66 l 2,-21 q -115,6 -191,98 -12,-22 -12,-47 0,-52 41,-77 -22,0 -42,10 v -1 q 0,-34 20.5,-59 z"
       id="path2"
       inkscape:connector-curvature="0"
       style="fill:#139de9;fill-opacity:1" />
  </g>
</svg>
