<?xml version="1.0" encoding="UTF-8" standalone="no"?>
<svg
   xmlns:dc="http://purl.org/dc/elements/1.1/"
   xmlns:cc="http://creativecommons.org/ns#"
   xmlns:rdf="http://www.w3.org/1999/02/22-rdf-syntax-ns#"
   xmlns:svg="http://www.w3.org/2000/svg"
   xmlns="http://www.w3.org/2000/svg"
   xmlns:sodipodi="http://sodipodi.sourceforge.net/DTD/sodipodi-0.dtd"
   xmlns:inkscape="http://www.inkscape.org/namespaces/inkscape"
   version="1.1"
   viewBox="0 -250 703 702"
   id="svg6"
   sodipodi:docname="blog.svg"
   width="703"
   height="702"
   inkscape:version="0.92.0 r">
  <metadata
     id="metadata12">
    <rdf:RDF>
      <cc:Work
         rdf:about="">
        <dc:format>image/svg+xml</dc:format>
        <dc:type
           rdf:resource="http://purl.org/dc/dcmitype/StillImage" />
        <dc:title></dc:title>
      </cc:Work>
    </rdf:RDF>
  </metadata>
  <defs
     id="defs10" />
  <sodipodi:namedview
     pagecolor="#ffffff"
     bordercolor="#666666"
     borderopacity="1"
     objecttolerance="10"
     gridtolerance="10"
     guidetolerance="10"
     inkscape:pageopacity="0"
     inkscape:pageshadow="2"
     inkscape:window-width="1916"
     inkscape:window-height="1058"
     id="namedview8"
     showgrid="false"
     fit-margin-top="0"
     fit-margin-left="0"
     fit-margin-right="0"
     fit-margin-bottom="0"
     inkscape:zoom="0.236"
     inkscape:cx="-284.28814"
     inkscape:cy="502"
     inkscape:window-x="0"
     inkscape:window-y="20"
     inkscape:window-maximized="0"
     inkscape:current-layer="svg6" />
  <g
     transform="matrix(1,0,0,-1,-47,450)"
     id="g4"
     style="fill:#ec4600;fill-opacity:1">
    <path
       d="M 536,672.5 Q 600,646 649,597 697,548 723.5,484 750,420 750,349 750,278 723.5,214 697,150 648,101 599,52 534.5,25 470,-2 399,-2 328,-2 263.5,25 199,52 150,101 101,149 74,213.5 47,278 47,349 47,419 73.5,483.5 100,548 149,597 q 49,49 112,75.5 63,26.5 134,27.5 h 7 q 70,-1 134,-27.5 z M 380,421.5 Q 443,385 479.5,322 516,259 516,184 h 65 q 0,69 -25.5,130.5 Q 530,376 482,424 434,472 372.5,497.5 311,523 242,523 v -65 q 75,0 138,-36.5 z m -59,-100 Q 357,300 378.5,263.5 400,227 400,184 h 66 q 0,91 -65,159 -68,65 -159,65 v -65 q 43,0 79,-21.5 z M 255,261 q -13,-13 -13,-32 0,-19 13,-32 13,-13 32,-13 19,0 32,13 13,13 13,32 0,19 -13,32 -13,13 -32,13 -19,0 -32,-13 z"
       id="path2"
       inkscape:connector-curvature="0"
       style="fill:#ec4600;fill-opacity:1" />
  </g>
</svg>
