<?xml version="1.0" encoding="UTF-8" standalone="no"?>
<svg
   xmlns:dc="http://purl.org/dc/elements/1.1/"
   xmlns:cc="http://creativecommons.org/ns#"
   xmlns:rdf="http://www.w3.org/1999/02/22-rdf-syntax-ns#"
   xmlns:svg="http://www.w3.org/2000/svg"
   xmlns="http://www.w3.org/2000/svg"
   xmlns:sodipodi="http://sodipodi.sourceforge.net/DTD/sodipodi-0.dtd"
   xmlns:inkscape="http://www.inkscape.org/namespaces/inkscape"
   version="1.1"
   viewBox="0 -250 703 703"
   id="svg6"
   sodipodi:docname="doyoubuzz.svg"
   width="703"
   height="703"
   inkscape:version="0.92.0 r">
  <metadata
     id="metadata12">
    <rdf:RDF>
      <cc:Work
         rdf:about="">
        <dc:format>image/svg+xml</dc:format>
        <dc:type
           rdf:resource="http://purl.org/dc/dcmitype/StillImage" />
        <dc:title></dc:title>
      </cc:Work>
    </rdf:RDF>
  </metadata>
  <defs
     id="defs10" />
  <sodipodi:namedview
     pagecolor="#ffffff"
     bordercolor="#666666"
     borderopacity="1"
     objecttolerance="10"
     gridtolerance="10"
     guidetolerance="10"
     inkscape:pageopacity="0"
     inkscape:pageshadow="2"
     inkscape:window-width="1916"
     inkscape:window-height="1058"
     id="namedview8"
     showgrid="false"
     fit-margin-top="0"
     fit-margin-left="0"
     fit-margin-right="0"
     fit-margin-bottom="0"
     inkscape:zoom="0.236"
     inkscape:cx="-284.28814"
     inkscape:cy="501"
     inkscape:window-x="0"
     inkscape:window-y="20"
     inkscape:window-maximized="0"
     inkscape:current-layer="g4" />
  <g
     transform="matrix(1,0,0,-1,-47,452)"
     id="g4">
    <path
       d="m 533.5,26 q 64.5,27 113.5,76 49,49 76,113.5 27,64.5 27,135.5 0,71 -27,135.5 Q 696,551 647,600 598,648 533.5,675 469,702 398,702 327,702 263,675.5 199,649 150,600 101,551 74,486.5 47,422 47,351 47,280 74,215.5 101,151 150,102 198,53 262.5,26 327,-1 398,-1 q 71,0 135.5,27 z m 21,475.5 Q 532,539 494.5,561.5 457,584 414,584 l -2,44 q 55,0 102,-28 47,-28 75,-75 28,-47 28,-102 l -40,-2 q 0,43 -22.5,80.5 z M 479.5,482 Q 453,509 416,509 l -2,48 q 37,0 68.5,-18.5 31.5,-18.5 50,-50 Q 551,457 551,420 l -45,-2 q 0,37 -26.5,64 z M 230,227.5 q 24,30.5 53.5,49.5 29.5,19 48.5,19 -45,31 -45,81 0,37 27.5,64 27.5,27 64.5,27 40,0 67,-26.5 27,-26.5 27,-64.5 0,-26 -13,-48.5 -13,-22.5 -35,-34.5 30,-3 57.5,-23.5 27.5,-20.5 46,-50 Q 547,191 552,165 H 201 q 5,32 29,62.5 z"
       id="path2"
       inkscape:connector-curvature="0"
       style="fill:#ff8800;fill-opacity:1" />
  </g>
</svg>
